<svg width="93" height="17" viewBox="0 0 93 17" fill="none" xmlns="http://www.w3.org/2000/svg">
<path d="M3.00367 16.5501L5.13211 10.2245L-1.69963e-06 6.78316H6.28584L8.53362 2.13685e-05L10.8212 6.78316H17.0672L11.9351 10.2245L14.1034 16.5501L8.53362 12.512L3.00367 16.5501ZM21.9002 16.5501L24.0286 10.2245L18.8965 6.78316H25.1824L27.4301 2.13685e-05L29.7177 6.78316H35.9638L30.8317 10.2245L32.9999 16.5501L27.4301 12.512L21.9002 16.5501ZM40.7967 16.5501L42.9251 10.2245L37.793 6.78316H44.0789L46.3267 2.13685e-05L48.6142 6.78316H54.8603L49.7282 10.2245L51.8964 16.5501L46.3267 12.512L40.7967 16.5501ZM59.6932 16.5501L61.8217 10.2245L56.6896 6.78316H62.9754L65.2232 2.13685e-05L67.5107 6.78316H73.7568L68.6247 10.2245L70.7929 16.5501L65.2232 12.512L59.6932 16.5501ZM78.5897 16.5501L80.7182 10.2245L75.5861 6.78316H81.8719L84.1197 2.13685e-05L86.4073 6.78316H92.6533L87.5212 10.2245L89.6894 16.5501L84.1197 12.512L78.5897 16.5501Z" fill="#FAAA4C"/>
</svg>
