<svg width="232" height="60" viewBox="0 0 232 60" fill="none" xmlns="http://www.w3.org/2000/svg">
<path d="M55.9929 1.57819C55.8863 1.75812 55.6131 2.15131 55.3932 2.46453C55.1666 2.77776 54.7334 3.4042 54.4135 3.86404C54.1003 4.32387 53.6738 4.93699 53.4672 5.23021C53.2606 5.52344 52.9607 5.94996 52.8074 6.18321C52.6475 6.40979 52.3809 6.78966 52.2143 7.02957C51.4879 8.0692 51.2613 8.40908 50.7681 9.12882C50.4749 9.54867 50.0751 10.1351 49.8685 10.4284C49.6619 10.7216 49.3686 11.1414 49.2154 11.3614C49.0621 11.5813 48.8022 11.9545 48.6422 12.1944C48.329 12.6409 47.8692 13.3073 47.1294 14.3936C46.8895 14.7402 46.5696 15.2067 46.4164 15.4266C46.2631 15.6465 46.0032 16.0197 45.8366 16.2596C45.6766 16.4995 45.3034 17.0393 45.0169 17.4592C44.7236 17.879 44.3304 18.4522 44.1438 18.7254C43.9506 18.9986 43.564 19.5518 43.2908 19.9583C43.0109 20.3581 42.6444 20.898 42.4644 21.1579C42.0046 21.8243 41.3382 22.7973 40.885 23.457C40.6717 23.7703 40.3652 24.2168 40.1986 24.4567C40.032 24.6966 39.6788 25.2031 39.4189 25.5896C38.8857 26.3693 38.3792 27.1024 37.7261 28.0554C37.4862 28.4019 37.1597 28.8818 36.9997 29.1217C36.8331 29.3616 36.6465 29.6282 36.5799 29.7148C36.3999 29.9414 36.4199 30.0214 36.7398 30.5345C36.8931 30.7878 37.053 31.0477 37.0863 31.1076C37.193 31.2876 37.5062 31.7741 37.9127 32.3872C38.1126 32.7004 38.3126 33.007 38.3526 33.0669C38.4725 33.2735 38.9857 34.0733 39.3189 34.5864C39.6121 35.0396 40.0653 35.746 40.2719 36.0792C40.3185 36.1525 40.4785 36.4058 40.6384 36.639C40.7917 36.8723 40.9183 37.0722 40.9183 37.0855C40.9183 37.0988 41.0449 37.2988 41.2049 37.532C41.3582 37.7653 41.5181 38.0185 41.5648 38.0918C41.6114 38.1585 41.7713 38.425 41.9313 38.6716C42.0912 38.9182 42.2512 39.1781 42.2845 39.2381C42.3845 39.4047 43.2442 40.7242 43.3774 40.9175C43.4441 41.0108 43.5107 41.1307 43.5374 41.184C43.564 41.2374 43.7306 41.5106 43.9106 41.7838C44.0972 42.0571 44.3704 42.4902 44.5304 42.7368C44.6903 42.9901 44.8636 43.2633 44.9169 43.3499C44.9702 43.4366 45.1501 43.7231 45.3167 43.9831C45.4834 44.243 45.6633 44.5295 45.7166 44.6095C45.8699 44.8494 46.403 45.7024 46.5363 45.9224C46.5963 46.0357 46.6363 46.1556 46.6163 46.1889C46.5696 46.2622 41.4581 46.2689 38.5325 46.2023L36.5799 46.1623L36.0001 45.2026C35.6802 44.6761 35.367 44.163 35.307 44.063C35.2403 43.9631 35.1604 43.8231 35.1204 43.7498C35.0804 43.6765 34.9938 43.5232 34.9205 43.4166C34.8471 43.3033 34.7605 43.1567 34.7205 43.0834C34.6805 43.0101 34.6006 42.8701 34.5339 42.7702C34.4739 42.6768 34.1541 42.157 33.8208 41.6172C33.4943 41.0841 33.1744 40.5709 33.1211 40.4843C33.0678 40.3977 32.7945 39.9645 32.5213 39.518C32.2481 39.0715 31.9748 38.6383 31.9215 38.5517C31.8682 38.465 31.6883 38.1785 31.5217 37.9185C31.3551 37.6586 31.1685 37.3654 31.1085 37.2654C31.0418 37.1655 30.9685 37.0389 30.9419 36.9855C30.9152 36.9322 30.7686 36.699 30.6087 36.4657C30.4487 36.2325 30.3221 36.0326 30.3221 36.0192C30.3221 35.9526 29.9689 35.4794 29.8889 35.4394C29.8289 35.3994 29.749 35.4861 29.6357 35.706C29.5424 35.8859 29.4024 36.1458 29.3225 36.2925C29.2358 36.4324 29.0226 36.8389 28.836 37.1855C28.656 37.532 28.3895 38.0252 28.2562 38.2851C26.7567 41.1107 26.3568 41.8905 24.9174 44.7628C24.2176 46.1623 23.6645 47.3419 23.6911 47.3818C23.8044 47.5618 23.9444 47.4085 25.044 45.8357C25.2172 45.5891 25.5171 45.156 25.7171 44.8761C26.2435 44.123 27.2365 42.6569 28.5761 40.6376C29.2225 39.6579 29.789 38.8582 29.8289 38.8582C29.8756 38.8515 29.9222 38.9049 29.9422 38.9648C29.9689 39.0315 30.1288 39.3514 30.3154 39.6846C30.4954 40.0111 30.7486 40.4776 30.8686 40.7175C31.3751 41.6705 31.7149 42.3103 31.9548 42.7502C32.0948 43.0101 32.328 43.4432 32.4747 43.7165C32.7679 44.2563 33.0278 44.7494 33.3277 45.2959C33.4343 45.4892 33.6076 45.8091 33.7142 45.9957C33.9208 46.3822 34.2607 46.9953 34.4939 47.4152C34.5806 47.5618 34.7272 47.835 34.8272 48.0216C34.9271 48.2082 35.0604 48.4281 35.1204 48.5148L35.2337 48.668L43.0176 48.5947C47.7359 48.5548 50.8215 48.5014 50.8614 48.4615C50.9014 48.4215 50.7681 48.1816 50.5082 47.8084C50.0284 47.1219 49.6485 46.5755 48.9421 45.5492C48.6689 45.1426 48.2824 44.5895 48.0891 44.3163C47.8958 44.043 47.536 43.5166 47.2827 43.15C46.8095 42.4569 46.3031 41.7305 45.7899 40.9841C45.63 40.7442 45.2701 40.2311 45.0035 39.8379C44.737 39.438 44.2838 38.7782 44.0039 38.3717C43.2775 37.3054 42.6444 36.3791 41.838 35.1862C41.0383 33.9999 40.2919 32.907 39.7921 32.1873C38.4392 30.228 38.2992 29.988 38.3992 29.8681C38.4525 29.8081 38.5192 29.7081 38.5458 29.6548C38.5658 29.6015 38.7391 29.3283 38.919 29.055C39.099 28.7818 39.3722 28.3486 39.5321 28.0954C39.6921 27.8421 39.8654 27.5689 39.9187 27.4889C39.972 27.409 40.1453 27.1357 40.3052 26.8825C40.4651 26.6292 40.7384 26.1961 40.9183 25.9228C41.0983 25.6496 41.3715 25.2164 41.5314 24.9698C41.6914 24.7166 41.8646 24.4434 41.918 24.3567C41.9713 24.2701 42.1445 23.9969 42.3045 23.7436C42.4644 23.497 42.7843 22.9905 43.0176 22.624C43.2508 22.2575 43.5707 21.751 43.7306 21.5044C43.8906 21.2512 44.0639 20.9779 44.1172 20.898C44.2238 20.7313 44.7769 19.8583 44.8836 19.6717C44.9236 19.6117 45.0702 19.3785 45.2168 19.1586C45.3634 18.9387 45.51 18.7054 45.55 18.6454C45.6233 18.5188 45.9565 17.9923 46.6163 16.9594C46.8495 16.5928 47.2094 16.0197 47.416 15.6931C47.6226 15.3599 47.9358 14.8668 48.1224 14.5935C48.3023 14.3203 48.4756 14.0337 48.5156 13.9604C48.5556 13.8871 48.7289 13.6006 48.9088 13.3273C49.202 12.8875 49.8885 11.8079 50.0817 11.4747C50.1217 11.4147 50.2683 11.1814 50.4149 10.9615C50.5615 10.7416 50.7082 10.5083 50.7481 10.4484C50.8481 10.2817 51.5212 9.20213 52.0144 8.42907C52.2476 8.06254 52.6141 7.48274 52.8274 7.14286C53.0407 6.79632 53.2606 6.44978 53.3139 6.36314C53.3672 6.27651 53.5471 5.98994 53.7138 5.73004C53.8804 5.47013 54.0603 5.18356 54.1136 5.09693C54.1669 5.01029 54.3868 4.65709 54.6001 4.31721C54.8134 3.97733 55.1332 3.47084 55.3198 3.19761C55.4998 2.92437 55.6731 2.63781 55.713 2.5645C55.7464 2.49119 55.9263 2.19796 56.1129 1.9114C56.4794 1.3316 56.5061 1.26496 56.3195 1.26496C56.2462 1.26496 56.1196 1.39158 55.9929 1.57819Z" fill="#121212"/>
<path d="M24.2521 11.4276C24.2321 11.4409 20.8133 11.4609 16.6548 11.4609C12.4896 11.4675 9.04417 11.4942 8.99752 11.5275C8.90422 11.5875 9.32407 12.2539 10.5303 13.96C10.7636 14.2865 11.1701 14.873 11.43 15.2595C11.6899 15.6461 12.0964 16.2259 12.3297 16.5591C12.5629 16.8856 13.0094 17.5321 13.316 17.9919C13.8358 18.7516 14.2356 19.3447 15.0554 20.5243C15.2153 20.7642 15.6351 21.3773 15.9884 21.8905C16.9813 23.3566 17.7077 24.4296 18.2476 25.2226C18.5275 25.6225 19.0539 26.4022 19.4271 26.9554C19.8003 27.5018 20.2402 28.1483 20.4068 28.3882C20.5667 28.6281 20.8799 29.0746 21.0932 29.3878C21.3065 29.701 21.4797 30.0009 21.4797 30.0676C21.4731 30.1276 21.3531 30.3475 21.2065 30.5674C20.9799 30.9073 20.7267 31.2871 20.4934 31.6603C20.4601 31.7203 20.2935 31.9869 20.1269 32.2468C19.9603 32.5134 19.7937 32.7799 19.7603 32.8399C19.7204 32.8999 19.5737 33.1332 19.4205 33.3531C19.2739 33.5797 19.1339 33.7996 19.1072 33.8529C19.0806 33.9062 18.914 34.1794 18.734 34.4527C18.5474 34.7259 18.2742 35.1591 18.1143 35.4057C17.9543 35.6589 17.7811 35.9322 17.7277 36.0188C17.6744 36.1054 17.4945 36.392 17.3279 36.6519C17.1613 36.9118 16.9813 37.1984 16.928 37.285C16.8747 37.3716 16.7014 37.6449 16.5415 37.8981C16.3815 38.1447 16.0617 38.6512 15.8284 39.0177C15.5952 39.3843 15.2753 39.8907 15.1153 40.1373C14.9554 40.3906 14.7755 40.6705 14.7155 40.7704C14.6488 40.8704 14.5755 40.997 14.5489 41.0503C14.5155 41.1036 14.2956 41.4502 14.0557 41.8167C13.8158 42.1833 13.5292 42.6298 13.4226 42.803C13.316 42.983 13.1827 43.1962 13.1294 43.2829C13.0761 43.3695 12.9028 43.6427 12.7428 43.896C12.5829 44.1426 12.263 44.649 12.0298 45.0156C11.7965 45.3821 11.4766 45.8886 11.3167 46.1352C11.1567 46.3884 10.9768 46.6683 10.9168 46.7683C10.8502 46.8683 10.7769 46.9949 10.7502 47.0482C10.7236 47.1015 10.5836 47.3281 10.437 47.548C10.2837 47.7746 10.1304 48.0145 10.0838 48.0878C9.88387 48.4144 9.21744 49.4807 8.83091 50.0804C8.59766 50.447 8.23112 51.0268 8.01787 51.3667C7.59802 52.0397 7.57802 52.0731 7.13152 52.7795C6.96491 53.0394 6.79164 53.3193 6.74499 53.3993C6.69834 53.4792 6.46509 53.8458 6.23184 54.2123C5.99859 54.5788 5.63205 55.1586 5.41879 55.4985C5.20554 55.8384 4.98561 56.1916 4.9323 56.2782C3.64609 58.3175 3.39951 58.7174 3.39951 58.784C3.39951 58.8173 3.45283 58.844 3.52613 58.844C3.59944 58.844 3.72606 58.7174 3.85268 58.5241C3.95931 58.3508 4.19923 57.9976 4.37916 57.7444C4.75903 57.2112 5.23219 56.5315 5.64538 55.925C5.97859 55.4452 6.37845 54.8654 6.83162 54.2123C7.01156 53.9524 7.29146 53.5525 7.45807 53.3126C7.61801 53.0727 7.87792 52.6995 8.03119 52.4796C8.60432 51.6532 8.91754 51.2 9.23077 50.7469C9.40404 50.487 9.68394 50.0938 9.84388 49.8605C10.9568 48.2544 11.25 47.8279 11.8298 46.9816C12.0897 46.595 12.443 46.0819 12.6162 45.8286C13.1494 45.0689 13.5292 44.5091 14.0291 43.7827C14.289 43.3962 14.6422 42.8897 14.8088 42.6498C14.9687 42.4098 15.2686 41.9767 15.4685 41.6834C16.115 40.7504 16.7481 39.8308 17.028 39.4176C17.1813 39.1977 17.4812 38.7645 17.6944 38.4513C18.1409 37.7982 18.8074 36.8318 19.2938 36.1321C19.4738 35.8655 19.6737 35.5723 19.727 35.4856C19.7803 35.399 19.9869 35.0925 20.1869 34.8059C20.3868 34.5193 20.7667 33.9729 21.0266 33.5863C21.2931 33.1998 21.653 32.6733 21.8263 32.4201C22.0062 32.1602 22.3727 31.627 22.6393 31.2338C22.9126 30.834 23.1925 30.4208 23.2724 30.3142C23.3924 30.1542 23.4057 30.0876 23.3524 29.9343C23.2924 29.7744 22.586 28.6481 22.2528 28.1749C22.1861 28.075 22.1262 27.975 22.1262 27.955C22.1262 27.935 22.0662 27.835 21.9995 27.7351C21.7996 27.4552 20.9599 26.1623 20.9333 26.089C20.9199 26.0557 20.78 25.8424 20.6267 25.6225C20.4734 25.4026 20.3268 25.176 20.3002 25.1227C20.2202 24.9494 19.3272 23.5632 19.0539 23.1767C18.9873 23.0767 18.9273 22.9834 18.9273 22.9634C18.9273 22.9501 18.7074 22.6036 18.4475 22.1971C18.1809 21.7905 17.841 21.2707 17.7011 21.0441C17.5545 20.8109 17.2746 20.371 17.068 20.0578C16.868 19.7446 16.5748 19.2781 16.4082 19.0249C16.2416 18.7649 16.0283 18.4384 15.935 18.2918C15.8351 18.1452 15.7351 17.9786 15.7085 17.9252C15.6818 17.8719 15.5152 17.5987 15.3353 17.3255C15.1487 17.0522 14.8754 16.619 14.7155 16.3725C14.5555 16.1192 14.3756 15.8393 14.3156 15.7394C14.249 15.6394 14.1757 15.5128 14.149 15.4595C14.1224 15.4061 13.9757 15.1729 13.8158 14.9463C13.6559 14.7131 13.5292 14.5131 13.5292 14.4931C13.5292 14.4798 13.4559 14.3532 13.3626 14.2199C13.2693 14.0866 13.196 13.9467 13.196 13.92C13.196 13.8867 15.4619 13.86 18.2276 13.86H23.2524L23.9389 14.9996C24.3187 15.6194 24.6786 16.2125 24.7386 16.3125C24.8052 16.4125 24.8918 16.5524 24.9252 16.6257C25.0118 16.779 25.1451 17.0122 25.3117 17.2721C25.3717 17.3721 25.7382 17.9652 26.1247 18.5917C26.5113 19.2181 26.8711 19.8046 26.9245 19.8912C26.9778 19.9778 27.2443 20.4044 27.5109 20.8375C27.7775 21.2707 28.1907 21.9238 28.4306 22.2904C28.6638 22.6569 28.8771 23.0034 28.9037 23.0567C28.9304 23.1101 29.077 23.3433 29.237 23.5766C29.3969 23.8098 29.5235 24.0097 29.5235 24.0231C29.5235 24.0964 29.9434 24.6562 29.9967 24.6562C30.03 24.6562 30.09 24.5895 30.1233 24.5029C30.19 24.3629 30.3099 24.1364 30.8697 23.1234C31.1963 22.5236 31.7227 21.524 33.0289 19.0249C33.2622 18.585 34.0686 16.9922 34.8216 15.4861C36.0945 12.9537 36.2678 12.5272 36.0612 12.5272C36.0345 12.5272 35.8346 12.7738 35.6214 13.0736C35.4081 13.3802 35.1215 13.7734 34.9882 13.96C34.855 14.1399 34.6017 14.4931 34.4351 14.7464C34.2618 14.993 33.9819 15.3995 33.8087 15.6461C33.0889 16.6857 32.3825 17.732 31.2696 19.4047C30.6231 20.3844 30.0567 21.1841 30.0233 21.1841C29.9834 21.1907 29.8301 20.9575 29.6835 20.6709C29.5369 20.391 29.2636 19.8712 29.077 19.5247C28.8904 19.1781 28.5972 18.6183 28.4239 18.2918C28.2506 17.9586 28.0174 17.5254 27.9108 17.3255C27.6309 16.8256 27.4109 16.4191 26.9511 15.5594C26.7379 15.1529 26.5313 14.7797 26.4913 14.7131C26.458 14.6531 26.3513 14.4598 26.258 14.2799C26.1647 14.1066 26.0048 13.8134 25.9048 13.6268C25.7049 13.2936 25.4516 12.8204 25.0385 12.074C24.7452 11.5275 24.6253 11.3942 24.4387 11.3942C24.352 11.3942 24.2654 11.4076 24.2521 11.4276Z" fill="#121212"/>
<path d="M49.5168 15.6295V23.8129H56.7692V24.7929H49.5168V43.7568C49.5168 45.2922 49.7945 46.3702 50.3499 46.9909C50.9052 47.6116 51.6729 47.922 52.653 47.922C53.633 47.922 54.4824 47.5299 55.2011 46.7459C55.9198 45.9292 56.5405 44.5735 57.0632 42.6787L58.0432 42.9237C57.7165 44.8185 57.0632 46.4192 56.0831 47.7259C55.1358 49.0327 53.6657 49.686 51.6729 49.686C50.5622 49.686 49.6475 49.539 48.9288 49.245C48.2101 48.9837 47.5731 48.5916 47.0177 48.069C46.299 47.3176 45.7927 46.4192 45.4987 45.3738C45.2373 44.3285 45.1066 42.9401 45.1066 41.2087V24.7929H40.4024V23.8129H45.1066V16.3156C45.9234 16.2829 46.7074 16.2176 47.4588 16.1196C48.2101 16.0216 48.8961 15.8582 49.5168 15.6295ZM71.2979 23.0779C72.1799 23.0779 72.9476 23.2575 73.601 23.6169C74.287 23.9762 74.8097 24.4499 75.1691 25.038C75.5611 25.5933 75.7571 26.2303 75.7571 26.949C75.7571 27.7657 75.4958 28.4844 74.9731 29.1051C74.483 29.7258 73.8133 30.0362 72.964 30.0362C72.2779 30.0362 71.6736 29.8238 71.1509 29.3991C70.6282 28.9418 70.3669 28.3048 70.3669 27.4881C70.3669 26.8674 70.5302 26.3447 70.8569 25.92C71.2162 25.4626 71.6083 25.1033 72.0329 24.8419C71.8043 24.5153 71.4612 24.3519 71.0039 24.3519C69.9912 24.3519 69.0601 24.6623 68.2108 25.283C67.3614 25.871 66.6427 26.6387 66.0547 27.5861C65.4667 28.5334 65.0093 29.5462 64.6826 30.6242C64.3559 31.6696 64.1926 32.6496 64.1926 33.5643V43.9528C64.1926 45.5535 64.6499 46.6316 65.5647 47.1869C66.512 47.7096 67.7861 47.971 69.3868 47.971V49C68.6355 48.9673 67.5737 48.9347 66.2017 48.902C64.8296 48.8367 63.3759 48.804 61.8405 48.804C60.7298 48.804 59.6191 48.8367 58.5083 48.902C57.4303 48.9347 56.6136 48.9673 56.0582 49V47.971C57.3976 47.971 58.345 47.7259 58.9004 47.2359C59.4884 46.7459 59.7824 45.8149 59.7824 44.4428V29.1051C59.7824 27.6351 59.5211 26.557 58.9984 25.871C58.4757 25.1523 57.4956 24.7929 56.0582 24.7929V23.7639C57.1036 23.8619 58.1163 23.9109 59.0964 23.9109C60.0437 23.9109 60.9421 23.8619 61.7915 23.7639C62.6735 23.6332 63.4739 23.4536 64.1926 23.2249V29.3501C64.5519 28.4028 65.0583 27.4554 65.7117 26.508C66.3977 25.528 67.2144 24.7113 68.1618 24.0579C69.1091 23.4046 70.1545 23.0779 71.2979 23.0779ZM81.8977 49.343C80.5583 49.343 79.3986 49.098 78.4185 48.608C77.4385 48.0853 76.6871 47.3666 76.1644 46.4519C75.6744 45.5372 75.4294 44.4755 75.4294 43.2668C75.4294 41.8294 75.7561 40.6533 76.4094 39.7386C77.0955 38.8239 77.9612 38.0889 79.0066 37.5335C80.0519 36.9781 81.1463 36.5208 82.2897 36.1614C83.4657 35.7694 84.5765 35.4101 85.6218 35.0834C86.6672 34.724 87.5166 34.3157 88.17 33.8583C88.856 33.401 89.199 32.7966 89.199 32.0453V29.0071C89.199 27.6351 88.9867 26.5897 88.562 25.871C88.17 25.1523 87.6309 24.6786 86.9449 24.4499C86.2589 24.1886 85.4912 24.0579 84.6418 24.0579C83.8251 24.0579 82.9431 24.1723 81.9957 24.4009C81.081 24.6296 80.3459 25.1033 79.7906 25.822C80.4113 25.9527 80.9503 26.2793 81.4077 26.802C81.865 27.3247 82.0937 27.9944 82.0937 28.8111C82.0937 29.6278 81.8323 30.2812 81.3097 30.7712C80.787 31.2286 80.1173 31.4572 79.3006 31.4572C78.3532 31.4572 77.6508 31.1632 77.1935 30.5752C76.7688 29.9545 76.5564 29.2685 76.5564 28.5171C76.5564 27.6677 76.7688 26.9817 77.1935 26.459C77.6182 25.9363 78.1572 25.4463 78.8105 24.989C79.5619 24.4663 80.5256 24.0252 81.7017 23.6659C82.9104 23.2739 84.2661 23.0779 85.7688 23.0779C87.1082 23.0779 88.2516 23.2412 89.199 23.5679C90.1464 23.8619 90.9304 24.3029 91.5511 24.891C92.4005 25.675 92.9558 26.6387 93.2172 27.7821C93.4785 28.8928 93.6092 30.2322 93.6092 31.8003V45.4228C93.6092 46.2395 93.7235 46.8276 93.9522 47.1869C94.2135 47.5463 94.6056 47.7259 95.1283 47.7259C95.4876 47.7259 95.8306 47.6443 96.1573 47.4809C96.484 47.3176 96.876 47.0562 97.3334 46.6969L97.8724 47.5299C97.1863 48.0526 96.533 48.4936 95.9123 48.853C95.2916 49.1797 94.4586 49.343 93.4132 49.343C92.4658 49.343 91.6818 49.1797 91.0611 48.853C90.4404 48.5263 89.9667 48.0526 89.64 47.4319C89.346 46.7786 89.199 45.9619 89.199 44.9818C88.317 46.4519 87.2552 47.5463 86.0139 48.265C84.8051 48.9837 83.4331 49.343 81.8977 49.343ZM83.6618 47.3829C84.7398 47.3829 85.7362 47.0726 86.6509 46.4519C87.5983 45.8312 88.4476 44.9002 89.199 43.6588V34.0544C88.807 34.6097 88.2353 35.0834 87.4839 35.4754C86.7326 35.8348 85.9159 36.2104 85.0338 36.6025C84.1518 36.9618 83.3024 37.4028 82.4857 37.9255C81.7017 38.4155 81.0483 39.0689 80.5256 39.8856C80.0029 40.7023 79.7416 41.764 79.7416 43.0707C79.7416 44.3775 80.0846 45.4228 80.7706 46.2069C81.4893 46.9909 82.453 47.3829 83.6618 47.3829ZM105.421 58.2124C103.69 58.2124 102.056 58.0327 100.521 57.6734C98.9854 57.314 97.744 56.7423 96.7966 55.9583C95.8819 55.2069 95.4246 54.2432 95.4246 53.0672C95.4246 51.9238 95.8819 50.9438 96.7966 50.127C97.7113 49.3103 98.9527 48.6897 100.521 48.265L100.815 49.049C100.096 49.2777 99.5244 49.735 99.0997 50.4211C98.675 51.1071 98.4627 51.8748 98.4627 52.7242C98.4627 54.2269 99.1487 55.3703 100.521 56.1543C101.926 56.971 103.739 57.3794 105.96 57.3794C107.43 57.3794 108.867 57.1834 110.272 56.7913C111.677 56.432 112.837 55.8113 113.751 54.9293C114.666 54.0472 115.123 52.8875 115.123 51.4501C115.123 50.3721 114.731 49.49 113.947 48.804C113.196 48.0853 111.693 47.7259 109.439 47.7259H105.813C104.768 47.7259 103.755 47.6443 102.775 47.4809C101.795 47.3176 100.994 46.9746 100.374 46.4519C99.7531 45.9292 99.4427 45.1288 99.4427 44.0508C99.4427 42.9401 99.9001 41.8784 100.815 40.8656C101.73 39.8203 103.412 38.7586 105.862 37.6805L106.45 38.1215C105.339 38.7096 104.376 39.3139 103.559 39.9346C102.742 40.5226 102.334 41.225 102.334 42.0417C102.334 43.0871 103.118 43.6098 104.686 43.6098H110.811C112.183 43.6098 113.441 43.8058 114.584 44.1978C115.76 44.5898 116.708 45.2105 117.427 46.0599C118.145 46.9092 118.505 48.02 118.505 49.392C118.505 50.9274 118.015 52.3648 117.035 53.7042C116.054 55.0436 114.584 56.1216 112.624 56.9383C110.697 57.7877 108.296 58.2124 105.421 58.2124ZM105.666 38.5625C104.065 38.5625 102.612 38.3012 101.305 37.7785C99.9981 37.2232 98.969 36.3738 98.2177 35.2304C97.4663 34.087 97.0906 32.617 97.0906 30.8202C97.0906 29.0235 97.4663 27.5534 98.2177 26.41C98.969 25.2666 99.9981 24.4336 101.305 23.9109C102.612 23.3556 104.065 23.0779 105.666 23.0779C107.299 23.0779 108.753 23.3556 110.027 23.9109C111.334 24.4336 112.363 25.2666 113.114 26.41C113.866 27.5534 114.241 29.0235 114.241 30.8202C114.241 32.617 113.866 34.087 113.114 35.2304C112.363 36.3738 111.334 37.2232 110.027 37.7785C108.753 38.3012 107.299 38.5625 105.666 38.5625ZM105.666 37.6805C106.907 37.6805 107.871 37.1905 108.557 36.2104C109.276 35.2304 109.635 33.4337 109.635 30.8202C109.635 28.2068 109.276 26.41 108.557 25.43C107.871 24.4499 106.907 23.9599 105.666 23.9599C104.457 23.9599 103.494 24.4499 102.775 25.43C102.056 26.41 101.697 28.2068 101.697 30.8202C101.697 33.4337 102.056 35.2304 102.775 36.2104C103.494 37.1905 104.457 37.6805 105.666 37.6805ZM112.722 27.1451L111.84 26.802C112.298 25.6913 113.082 24.7113 114.192 23.8619C115.303 23.0125 116.463 22.5879 117.672 22.5879C118.521 22.5879 119.207 22.8329 119.73 23.3229C120.252 23.7802 120.514 24.4826 120.514 25.43C120.514 26.4427 120.236 27.1614 119.681 27.5861C119.158 27.9781 118.619 28.1741 118.064 28.1741C117.574 28.1741 117.116 28.0108 116.691 27.6841C116.267 27.3247 116.022 26.7694 115.956 26.018C115.891 25.2666 116.12 24.3029 116.642 23.1269L117.28 23.2739C115.907 23.7966 114.927 24.3519 114.339 24.94C113.751 25.4953 113.212 26.2303 112.722 27.1451ZM122.783 49V12.6404H126.263V49H122.783ZM143.931 49.245C141.252 49.245 138.9 48.6897 136.874 47.5789C134.849 46.4356 133.264 44.8838 132.121 42.9237C130.978 40.931 130.406 38.6606 130.406 36.1124C130.406 33.5643 130.945 31.3102 132.023 29.3501C133.134 27.3901 134.636 25.8547 136.531 24.7439C138.459 23.6006 140.615 23.0289 143 23.0289C145.417 23.0289 147.557 23.5842 149.419 24.6949C151.314 25.773 152.8 27.3084 153.878 29.3011C154.956 31.2612 155.495 33.5317 155.495 36.1124C155.495 36.2758 155.479 36.4555 155.446 36.6515C155.446 36.8148 155.446 36.9945 155.446 37.1905H133.052V34.5934H153.584L152.212 35.6224C152.212 33.7603 151.804 32.1106 150.987 30.6732C150.203 29.2031 149.125 28.0598 147.753 27.2431C146.381 26.4264 144.796 26.018 143 26.018C141.235 26.018 139.651 26.4264 138.246 27.2431C136.842 28.0598 135.747 29.2031 134.963 30.6732C134.179 32.1433 133.787 33.8257 133.787 35.7204V36.2594C133.787 38.2195 134.212 39.9509 135.061 41.4537C135.943 42.9237 137.152 44.0835 138.687 44.9328C140.255 45.7495 142.036 46.1579 144.029 46.1579C145.597 46.1579 147.05 45.8802 148.39 45.3248C149.762 44.7695 150.938 43.9201 151.918 42.7767L153.878 45.0308C152.735 46.4029 151.297 47.4483 149.566 48.167C147.867 48.8857 145.989 49.245 143.931 49.245ZM175.04 49V43.3158L174.893 42.3847V32.8783C174.893 30.6895 174.273 29.0071 173.031 27.8311C171.823 26.655 170.01 26.067 167.592 26.067C165.926 26.067 164.342 26.3447 162.839 26.9C161.336 27.4554 160.062 28.1904 159.017 29.1051L157.449 26.508C158.755 25.3973 160.323 24.5479 162.153 23.9599C163.982 23.3392 165.91 23.0289 167.935 23.0289C171.267 23.0289 173.832 23.8619 175.628 25.528C177.458 27.1614 178.373 29.6605 178.373 33.0253V49H175.04ZM166.171 49.245C164.244 49.245 162.561 48.9347 161.124 48.314C159.719 47.6606 158.641 46.7786 157.89 45.6679C157.138 44.5245 156.763 43.2177 156.763 41.7477C156.763 40.4083 157.073 39.1996 157.694 38.1215C158.347 37.0108 159.392 36.1288 160.83 35.4754C162.3 34.7894 164.26 34.4464 166.71 34.4464H175.579V37.0435H166.808C164.325 37.0435 162.594 37.4845 161.614 38.3665C160.666 39.2486 160.193 40.343 160.193 41.6497C160.193 43.1197 160.764 44.2958 161.908 45.1778C163.051 46.0599 164.652 46.5009 166.71 46.5009C168.67 46.5009 170.353 46.0599 171.757 45.1778C173.195 44.2631 174.24 42.9564 174.893 41.2577L175.677 43.6588C175.024 45.3575 173.881 46.7132 172.247 47.7259C170.647 48.7387 168.621 49.245 166.171 49.245ZM217.028 23.0289C219.118 23.0289 220.931 23.4372 222.467 24.2539C224.035 25.038 225.244 26.2467 226.093 27.8801C226.975 29.5135 227.416 31.5716 227.416 34.0544V49H223.937V34.3974C223.937 31.6859 223.283 29.6442 221.977 28.2721C220.703 26.8674 218.89 26.165 216.538 26.165C214.773 26.165 213.238 26.5407 211.931 27.2921C210.657 28.0108 209.661 29.0725 208.942 30.4772C208.256 31.8493 207.913 33.5153 207.913 35.4754V49H204.434V34.3974C204.434 31.6859 203.781 29.6442 202.474 28.2721C201.167 26.8674 199.338 26.165 196.986 26.165C195.254 26.165 193.735 26.5407 192.428 27.2921C191.122 28.0108 190.109 29.0725 189.39 30.4772C188.704 31.8493 188.361 33.5153 188.361 35.4754V49H184.882V23.2739H188.214V30.2322L187.675 29.0071C188.459 27.145 189.717 25.6913 191.448 24.6459C193.213 23.5679 195.287 23.0289 197.672 23.0289C200.187 23.0289 202.327 23.6659 204.091 24.94C205.855 26.1813 206.998 28.0598 207.521 30.5752L206.149 30.0362C206.9 27.9454 208.224 26.263 210.118 24.989C212.046 23.6822 214.349 23.0289 217.028 23.0289Z" fill="#121212"/>
</svg>
